<svg xmlns="http://www.w3.org/2000/svg" viewBox="0 0 32 32">
  <rect width="32" height="32" rx="3" fill="#0a1726"/>
  <g stroke="#5ce4ff" stroke-opacity="0.1" stroke-width="0.5">
    <line x1="8" y1="2" x2="8" y2="30"/>
    <line x1="16" y1="2" x2="16" y2="30"/>
    <line x1="24" y1="2" x2="24" y2="30"/>
    <line x1="2" y1="8" x2="30" y2="8"/>
    <line x1="2" y1="16" x2="30" y2="16"/>
    <line x1="2" y1="24" x2="30" y2="24"/>
  </g>
  <g fill="none" stroke="#5ce4ff" stroke-width="2" stroke-linecap="round" stroke-linejoin="round" transform="translate(4,4)">
    <circle cx="12" cy="12" r="3"/>
    <path d="M12 2v3m0 14v3M2 12h3m14 0h3"/>
    <path d="M5.6 5.6l2.1 2.1m8.6 8.6l2.1 2.1M5.6 18.4l2.1-2.1m8.6-8.6l2.1-2.1"/>
  </g>
  <g fill="#5ce4ff" fill-opacity="0.8">
    <rect x="2" y="2" width="4" height="1"/>
    <rect x="2" y="2" width="1" height="4"/>
    <rect x="26" y="2" width="4" height="1"/>
    <rect x="29" y="2" width="1" height="4"/>
    <rect x="2" y="29" width="4" height="1"/>
    <rect x="2" y="26" width="1" height="4"/>
    <rect x="26" y="29" width="4" height="1"/>
    <rect x="29" y="26" width="1" height="4"/>
  </g>
</svg>
